<mxfile host="app.diagrams.net" agent="Mozilla/5.0 (X11; Ubuntu; Linux x86_64; rv:135.0) Gecko/20100101 Firefox/135.0" version="26.0.11">
  <diagram name="Stránka-1" id="hBw3o54_oPbg6Phv4OLk">
    <mxGraphModel dx="3050" dy="-374" grid="1" gridSize="10" guides="1" tooltips="1" connect="1" arrows="1" fold="1" page="1" pageScale="1" pageWidth="827" pageHeight="1169" math="0" shadow="0">
      <root>
        <mxCell id="0" />
        <mxCell id="1" parent="0" />
        <mxCell id="DdNEtIH8sY0ZgAwJeYeQ-1" value="Skupinový/Samostatný projekt" style="swimlane;whiteSpace=wrap;html=1;direction=east;movable=1;resizable=1;rotatable=1;deletable=1;editable=1;locked=0;connectable=1;flipV=0;flipH=0;rotation=0;" parent="1" vertex="1">
          <mxGeometry x="-1540" y="1180" width="2240" height="1130" as="geometry" />
        </mxCell>
        <mxCell id="DdNEtIH8sY0ZgAwJeYeQ-7" value="Databáze" style="swimlane;whiteSpace=wrap;html=1;rotation=0;direction=east;" parent="DdNEtIH8sY0ZgAwJeYeQ-1" vertex="1">
          <mxGeometry x="20" y="740" width="770" height="370" as="geometry" />
        </mxCell>
        <mxCell id="DdNEtIH8sY0ZgAwJeYeQ-10" value="ER-diagram,&lt;br&gt;zásady tvorby (ideálně jako normální formy, ale stačí vlastními slovy základní principy)" style="rounded=1;whiteSpace=wrap;html=1;rotation=0;direction=east;" parent="DdNEtIH8sY0ZgAwJeYeQ-7" vertex="1">
          <mxGeometry x="30" y="50" width="270" height="130" as="geometry" />
        </mxCell>
        <mxCell id="DdNEtIH8sY0ZgAwJeYeQ-11" value="Princip relační databáze&lt;br&gt;(v jaké struktuře jsou data uložena,&lt;br&gt;jestli/jak jsou propojena,&lt;br&gt;jaké jim mohu přiřazovat vlastnosti, ...)" style="rounded=1;whiteSpace=wrap;html=1;rotation=0;direction=east;" parent="DdNEtIH8sY0ZgAwJeYeQ-7" vertex="1">
          <mxGeometry x="30" y="210" width="265" height="145" as="geometry" />
        </mxCell>
        <mxCell id="DdNEtIH8sY0ZgAwJeYeQ-17" value="SQL" style="swimlane;whiteSpace=wrap;html=1;rotation=0;direction=east;" parent="DdNEtIH8sY0ZgAwJeYeQ-7" vertex="1">
          <mxGeometry x="350" y="90" width="300" height="222.5" as="geometry" />
        </mxCell>
        <mxCell id="DdNEtIH8sY0ZgAwJeYeQ-18" value="create, insert" style="rounded=1;whiteSpace=wrap;html=1;rotation=0;direction=east;" parent="DdNEtIH8sY0ZgAwJeYeQ-17" vertex="1">
          <mxGeometry x="20" y="40" width="120" height="60" as="geometry" />
        </mxCell>
        <mxCell id="DdNEtIH8sY0ZgAwJeYeQ-19" value="select + možnosti" style="rounded=1;whiteSpace=wrap;html=1;rotation=0;direction=east;" parent="DdNEtIH8sY0ZgAwJeYeQ-17" vertex="1">
          <mxGeometry x="25" y="130" width="120" height="60" as="geometry" />
        </mxCell>
        <mxCell id="DdNEtIH8sY0ZgAwJeYeQ-20" value="join, delete" style="rounded=1;whiteSpace=wrap;html=1;rotation=0;direction=east;" parent="DdNEtIH8sY0ZgAwJeYeQ-17" vertex="1">
          <mxGeometry x="160" y="90" width="120" height="60" as="geometry" />
        </mxCell>
        <mxCell id="DdNEtIH8sY0ZgAwJeYeQ-21" value="Algoritmy" style="swimlane;whiteSpace=wrap;html=1;rotation=0;direction=east;" parent="DdNEtIH8sY0ZgAwJeYeQ-1" vertex="1">
          <mxGeometry x="1350" y="40" width="860" height="650" as="geometry" />
        </mxCell>
        <mxCell id="DdNEtIH8sY0ZgAwJeYeQ-22" value="Obecné vlastnosti algoritmů" style="rounded=1;whiteSpace=wrap;html=1;rotation=0;direction=east;" parent="DdNEtIH8sY0ZgAwJeYeQ-21" vertex="1">
          <mxGeometry x="30" y="60" width="270" height="80" as="geometry" />
        </mxCell>
        <mxCell id="DdNEtIH8sY0ZgAwJeYeQ-23" value="Prohození hodnot dvou proměnných,&lt;br&gt;Maximum/minimum v seznamu" style="rounded=1;whiteSpace=wrap;html=1;rotation=0;direction=east;" parent="DdNEtIH8sY0ZgAwJeYeQ-21" vertex="1">
          <mxGeometry x="27" y="270" width="270" height="70" as="geometry" />
        </mxCell>
        <mxCell id="DdNEtIH8sY0ZgAwJeYeQ-25" value="Řešení lineární rovnice v obecném tvaru,&lt;br&gt;Řešení kvadratické rovnice v obecném tvaru" style="rounded=1;whiteSpace=wrap;html=1;rotation=0;direction=east;" parent="DdNEtIH8sY0ZgAwJeYeQ-21" vertex="1">
          <mxGeometry x="27" y="370" width="270" height="80" as="geometry" />
        </mxCell>
        <mxCell id="DdNEtIH8sY0ZgAwJeYeQ-30" value="Euklidův algoritmus,&lt;br&gt;Eratosthenovo síto" style="rounded=1;whiteSpace=wrap;html=1;rotation=0;direction=east;" parent="DdNEtIH8sY0ZgAwJeYeQ-21" vertex="1">
          <mxGeometry x="320.5" y="370" width="270" height="70" as="geometry" />
        </mxCell>
        <mxCell id="DdNEtIH8sY0ZgAwJeYeQ-31" value="Bubble sort" style="rounded=1;whiteSpace=wrap;html=1;rotation=0;direction=east;" parent="DdNEtIH8sY0ZgAwJeYeQ-21" vertex="1">
          <mxGeometry x="320" y="60" width="269" height="80" as="geometry" />
        </mxCell>
        <mxCell id="DdNEtIH8sY0ZgAwJeYeQ-32" value="Faktoriál,&lt;br&gt;Fibonnaciho posloupnost,&lt;br&gt;Vyhledávání metodou půlení intervalu&lt;br&gt;rekurze" style="rounded=1;whiteSpace=wrap;html=1;rotation=0;direction=east;" parent="DdNEtIH8sY0ZgAwJeYeQ-21" vertex="1">
          <mxGeometry x="601.5" y="60" width="238.5" height="70" as="geometry" />
        </mxCell>
        <mxCell id="DdNEtIH8sY0ZgAwJeYeQ-33" value="Hornerovo schéma" style="rounded=1;whiteSpace=wrap;html=1;rotation=0;direction=east;" parent="DdNEtIH8sY0ZgAwJeYeQ-21" vertex="1">
          <mxGeometry x="607.5" y="360" width="230" height="70" as="geometry" />
        </mxCell>
        <mxCell id="DdNEtIH8sY0ZgAwJeYeQ-34" value="Převod z libovolné číselné soustavy do desítkové&lt;br&gt;a zpět" style="rounded=1;whiteSpace=wrap;html=1;rotation=0;direction=east;" parent="DdNEtIH8sY0ZgAwJeYeQ-21" vertex="1">
          <mxGeometry x="330" y="470" width="251" height="75" as="geometry" />
        </mxCell>
        <mxCell id="DdNEtIH8sY0ZgAwJeYeQ-35" value="Spojový seznam,&lt;br&gt;Fronta,&lt;br&gt;Zásobník,&lt;br&gt;Binární strom" style="rounded=1;whiteSpace=wrap;html=1;rotation=0;direction=east;" parent="DdNEtIH8sY0ZgAwJeYeQ-21" vertex="1">
          <mxGeometry x="325.5" y="280" width="260" height="70" as="geometry" />
        </mxCell>
        <mxCell id="DdNEtIH8sY0ZgAwJeYeQ-36" value="Prohledávání do šířky,&lt;br&gt;Prohledávání do hloubky" style="rounded=1;whiteSpace=wrap;html=1;rotation=0;direction=east;" parent="DdNEtIH8sY0ZgAwJeYeQ-21" vertex="1">
          <mxGeometry x="601.5" y="270" width="249" height="70" as="geometry" />
        </mxCell>
        <mxCell id="DdNEtIH8sY0ZgAwJeYeQ-38" value="Quick sort" style="rounded=1;whiteSpace=wrap;html=1;rotation=0;direction=east;" parent="DdNEtIH8sY0ZgAwJeYeQ-21" vertex="1">
          <mxGeometry x="601.5" y="180" width="236" height="70" as="geometry" />
        </mxCell>
        <mxCell id="DdNEtIH8sY0ZgAwJeYeQ-39" value="Merge sort" style="rounded=1;whiteSpace=wrap;html=1;rotation=0;direction=east;" parent="DdNEtIH8sY0ZgAwJeYeQ-21" vertex="1">
          <mxGeometry x="330" y="175" width="240" height="80" as="geometry" />
        </mxCell>
        <mxCell id="DdNEtIH8sY0ZgAwJeYeQ-40" value="Vývojový diagram,&lt;br&gt;Pseudokód" style="rounded=1;whiteSpace=wrap;html=1;rotation=0;direction=east;" parent="DdNEtIH8sY0ZgAwJeYeQ-21" vertex="1">
          <mxGeometry x="30" y="185" width="267" height="60" as="geometry" />
        </mxCell>
        <mxCell id="DdNEtIH8sY0ZgAwJeYeQ-41" value="Webové stránky" style="swimlane;whiteSpace=wrap;html=1;rotation=0;direction=east;" parent="DdNEtIH8sY0ZgAwJeYeQ-1" vertex="1">
          <mxGeometry x="20" y="40" width="1294" height="680" as="geometry" />
        </mxCell>
        <mxCell id="DdNEtIH8sY0ZgAwJeYeQ-42" value="Na straně klienta" style="swimlane;whiteSpace=wrap;html=1;startSize=23;rotation=0;direction=east;" parent="DdNEtIH8sY0ZgAwJeYeQ-41" vertex="1">
          <mxGeometry x="14" y="41" width="738.75" height="619" as="geometry" />
        </mxCell>
        <mxCell id="DdNEtIH8sY0ZgAwJeYeQ-43" value="HTML" style="swimlane;whiteSpace=wrap;html=1;rotation=0;direction=east;" parent="DdNEtIH8sY0ZgAwJeYeQ-42" vertex="1">
          <mxGeometry x="44.38" y="40" width="385.62" height="310" as="geometry" />
        </mxCell>
        <mxCell id="DdNEtIH8sY0ZgAwJeYeQ-44" value="co je html,&lt;br&gt;k čemu slouží,&lt;br&gt;základní struktura kódu a stránky,&lt;br&gt;nastavení vlastností stránky (datum změny, autor, ..),&lt;br&gt;&amp;nbsp;využití přidružených souborů" style="rounded=1;whiteSpace=wrap;html=1;rotation=0;direction=east;" parent="DdNEtIH8sY0ZgAwJeYeQ-43" vertex="1">
          <mxGeometry x="24.370000000000005" y="50" width="195.63" height="90" as="geometry" />
        </mxCell>
        <mxCell id="DdNEtIH8sY0ZgAwJeYeQ-45" value="rozdělení stránky na části,&lt;br&gt;základní text (odstavce, nadpisy, tučné písmo, ...)" style="rounded=1;whiteSpace=wrap;html=1;rotation=0;direction=east;" parent="DdNEtIH8sY0ZgAwJeYeQ-43" vertex="1">
          <mxGeometry x="24.370000000000005" y="175" width="165.63" height="105" as="geometry" />
        </mxCell>
        <mxCell id="DdNEtIH8sY0ZgAwJeYeQ-46" value="seznamy,&lt;br&gt;tabulky,&lt;br&gt;formuláře" style="rounded=1;whiteSpace=wrap;html=1;rotation=0;direction=east;" parent="DdNEtIH8sY0ZgAwJeYeQ-43" vertex="1">
          <mxGeometry x="255.62" y="50" width="115.63" height="90" as="geometry" />
        </mxCell>
        <mxCell id="DdNEtIH8sY0ZgAwJeYeQ-47" value="odkazy,&lt;br&gt;obrázky,&lt;br&gt;atributy, id, class" style="rounded=1;whiteSpace=wrap;html=1;rotation=0;direction=east;" parent="DdNEtIH8sY0ZgAwJeYeQ-43" vertex="1">
          <mxGeometry x="230" y="175" width="120" height="60" as="geometry" />
        </mxCell>
        <mxCell id="DdNEtIH8sY0ZgAwJeYeQ-48" value="JavaScript" style="swimlane;whiteSpace=wrap;html=1;startSize=23;rotation=0;direction=east;" parent="DdNEtIH8sY0ZgAwJeYeQ-42" vertex="1">
          <mxGeometry x="450" y="40" width="258.5" height="310" as="geometry" />
        </mxCell>
        <mxCell id="DdNEtIH8sY0ZgAwJeYeQ-49" value="co je JavaScript,&lt;br&gt;k čemu slouží,&lt;br&gt;kde běží,&lt;br&gt;k čemu se dá a k čemu nedá využít" style="rounded=1;whiteSpace=wrap;html=1;rotation=0;direction=east;" parent="DdNEtIH8sY0ZgAwJeYeQ-48" vertex="1">
          <mxGeometry x="34.5" y="55" width="145.5" height="105" as="geometry" />
        </mxCell>
        <mxCell id="DdNEtIH8sY0ZgAwJeYeQ-50" value="jak spustit/kdy se spustí JS,&lt;br&gt;reakce na události na stránce" style="rounded=1;whiteSpace=wrap;html=1;rotation=0;direction=east;" parent="DdNEtIH8sY0ZgAwJeYeQ-48" vertex="1">
          <mxGeometry x="37.25" y="190" width="172.75" height="90" as="geometry" />
        </mxCell>
        <mxCell id="DdNEtIH8sY0ZgAwJeYeQ-51" value="CSS" style="swimlane;whiteSpace=wrap;html=1;startSize=23;rotation=0;direction=east;" parent="DdNEtIH8sY0ZgAwJeYeQ-42" vertex="1">
          <mxGeometry x="170" y="370" width="450" height="230" as="geometry" />
        </mxCell>
        <mxCell id="DdNEtIH8sY0ZgAwJeYeQ-52" value="co je css,&lt;br&gt;k čemu slouží,&lt;br&gt;základní struktura kódu" style="rounded=1;whiteSpace=wrap;html=1;rotation=0;direction=east;" parent="DdNEtIH8sY0ZgAwJeYeQ-51" vertex="1">
          <mxGeometry x="14.75" y="50" width="135.63" height="70" as="geometry" />
        </mxCell>
        <mxCell id="DdNEtIH8sY0ZgAwJeYeQ-53" value="box-model" style="rounded=1;whiteSpace=wrap;html=1;rotation=0;direction=east;" parent="DdNEtIH8sY0ZgAwJeYeQ-51" vertex="1">
          <mxGeometry x="96" y="140" width="104.38" height="70" as="geometry" />
        </mxCell>
        <mxCell id="DdNEtIH8sY0ZgAwJeYeQ-55" value="základní nastavení,&lt;br&gt;id, class" style="rounded=1;whiteSpace=wrap;html=1;rotation=0;direction=east;" parent="DdNEtIH8sY0ZgAwJeYeQ-51" vertex="1">
          <mxGeometry x="306" y="50" width="124.38" height="70" as="geometry" />
        </mxCell>
        <mxCell id="DdNEtIH8sY0ZgAwJeYeQ-56" value="selektory/kombinátory,&lt;br&gt;barvy,&lt;br&gt;pseudo-class,&lt;br&gt;pseudo-element" style="rounded=1;whiteSpace=wrap;html=1;rotation=0;direction=east;" parent="DdNEtIH8sY0ZgAwJeYeQ-51" vertex="1">
          <mxGeometry x="157.19" y="50" width="135.63" height="70" as="geometry" />
        </mxCell>
        <mxCell id="DdNEtIH8sY0ZgAwJeYeQ-57" value="responzivní design,&lt;br&gt;jednotky" style="rounded=1;whiteSpace=wrap;html=1;rotation=0;direction=east;" parent="DdNEtIH8sY0ZgAwJeYeQ-51" vertex="1">
          <mxGeometry x="255.62" y="140" width="124.38" height="70" as="geometry" />
        </mxCell>
        <mxCell id="DdNEtIH8sY0ZgAwJeYeQ-58" value="Na straně serveru" style="swimlane;whiteSpace=wrap;html=1;rotation=0;direction=east;" parent="DdNEtIH8sY0ZgAwJeYeQ-41" vertex="1">
          <mxGeometry x="831.25" y="41" width="378.75" height="539" as="geometry" />
        </mxCell>
        <mxCell id="DdNEtIH8sY0ZgAwJeYeQ-59" value="proč vše neběží na straně klienta,&lt;br&gt;jaké výhody a nevýhody má využití serveru,&lt;br&gt;jaký je princip využití serveru" style="rounded=1;whiteSpace=wrap;html=1;rotation=0;direction=east;" parent="DdNEtIH8sY0ZgAwJeYeQ-58" vertex="1">
          <mxGeometry x="52.75" y="80" width="257.25" height="100" as="geometry" />
        </mxCell>
        <mxCell id="DdNEtIH8sY0ZgAwJeYeQ-60" value="zasílání dat mezi klientem a serverem,&lt;br&gt;zpracování dat z formuláře,&lt;br&gt;možná rizika a jejich řešení&lt;br&gt;(možné metody a jejich vlastnosti),&lt;br&gt;session" style="rounded=1;whiteSpace=wrap;html=1;rotation=0;direction=east;" parent="DdNEtIH8sY0ZgAwJeYeQ-58" vertex="1">
          <mxGeometry x="52.75" y="230" width="247.25" height="100" as="geometry" />
        </mxCell>
        <mxCell id="DdNEtIH8sY0ZgAwJeYeQ-61" value="práce s databází" style="rounded=1;whiteSpace=wrap;html=1;rotation=0;direction=east;" parent="DdNEtIH8sY0ZgAwJeYeQ-58" vertex="1">
          <mxGeometry x="52.75" y="370" width="237.25" height="100" as="geometry" />
        </mxCell>
        <mxCell id="DdNEtIH8sY0ZgAwJeYeQ-62" value="Vyšší programovací jazyk" style="swimlane;whiteSpace=wrap;html=1;rotation=0;direction=east;" parent="DdNEtIH8sY0ZgAwJeYeQ-1" vertex="1">
          <mxGeometry x="880" y="740" width="1330" height="370" as="geometry" />
        </mxCell>
        <mxCell id="DdNEtIH8sY0ZgAwJeYeQ-63" value="řídící struktury,&lt;br&gt;proměnné a základní datové typy" style="rounded=1;whiteSpace=wrap;html=1;rotation=0;direction=east;" parent="DdNEtIH8sY0ZgAwJeYeQ-62" vertex="1">
          <mxGeometry x="62.25" y="90" width="162.75" height="88" as="geometry" />
        </mxCell>
        <mxCell id="DdNEtIH8sY0ZgAwJeYeQ-64" value="funkce,&lt;br&gt;předávání argumentů,&lt;br&gt;proměnné ve funkci" style="rounded=1;whiteSpace=wrap;html=1;rotation=0;direction=east;" parent="DdNEtIH8sY0ZgAwJeYeQ-62" vertex="1">
          <mxGeometry x="80" y="210" width="132.75" height="78" as="geometry" />
        </mxCell>
        <mxCell id="DdNEtIH8sY0ZgAwJeYeQ-66" value="výčtové datové typy a jejich vlastnosti/využití" style="rounded=1;whiteSpace=wrap;html=1;rotation=0;direction=east;" parent="DdNEtIH8sY0ZgAwJeYeQ-62" vertex="1">
          <mxGeometry x="270" y="90" width="132.75" height="78" as="geometry" />
        </mxCell>
        <mxCell id="DdNEtIH8sY0ZgAwJeYeQ-67" value="OOP,&lt;br&gt;dědičnost,&lt;br&gt;polymorfismus,&lt;br&gt;zapouzdření" style="rounded=1;whiteSpace=wrap;html=1;rotation=0;direction=east;" parent="DdNEtIH8sY0ZgAwJeYeQ-62" vertex="1">
          <mxGeometry x="270" y="210" width="132.75" height="78" as="geometry" />
        </mxCell>
        <mxCell id="DdNEtIH8sY0ZgAwJeYeQ-68" value="Grafické aplikace" style="swimlane;whiteSpace=wrap;html=1;rotation=0;direction=east;" parent="DdNEtIH8sY0ZgAwJeYeQ-62" vertex="1">
          <mxGeometry x="460" y="40" width="330" height="310" as="geometry" />
        </mxCell>
        <mxCell id="DdNEtIH8sY0ZgAwJeYeQ-69" value="hlavní smyčka,&lt;br&gt;zásadní části grafické aplikace" style="rounded=1;whiteSpace=wrap;html=1;rotation=0;direction=east;" parent="DdNEtIH8sY0ZgAwJeYeQ-68" vertex="1">
          <mxGeometry x="64" y="38" width="197" height="82" as="geometry" />
        </mxCell>
        <mxCell id="DdNEtIH8sY0ZgAwJeYeQ-70" value="zpracování/detekce uživatelského vstupu" style="rounded=1;whiteSpace=wrap;html=1;rotation=0;direction=east;" parent="DdNEtIH8sY0ZgAwJeYeQ-68" vertex="1">
          <mxGeometry x="94" y="138" width="137" height="70.5" as="geometry" />
        </mxCell>
        <mxCell id="DdNEtIH8sY0ZgAwJeYeQ-71" value="animace,&lt;br&gt;detekce kolizí,&lt;br&gt;detekce pozice kurzoru/hitbox" style="rounded=1;whiteSpace=wrap;html=1;rotation=0;direction=east;" parent="DdNEtIH8sY0ZgAwJeYeQ-68" vertex="1">
          <mxGeometry x="74" y="228" width="177" height="70.5" as="geometry" />
        </mxCell>
        <mxCell id="DdNEtIH8sY0ZgAwJeYeQ-72" value="Zpracování/vykonávání programu" style="swimlane;whiteSpace=wrap;html=1;rotation=0;direction=east;" parent="DdNEtIH8sY0ZgAwJeYeQ-62" vertex="1">
          <mxGeometry x="870" y="42" width="400" height="308" as="geometry" />
        </mxCell>
        <mxCell id="DdNEtIH8sY0ZgAwJeYeQ-73" value="interpretované jazyky,&lt;br&gt;zpracování knihoven,&lt;br&gt;co musí být v kódu, aby šel spustit,&lt;br&gt;přenositelnost" style="rounded=1;whiteSpace=wrap;html=1;rotation=0;direction=east;" parent="DdNEtIH8sY0ZgAwJeYeQ-72" vertex="1">
          <mxGeometry x="10" y="48.5" width="190" height="111.5" as="geometry" />
        </mxCell>
        <mxCell id="DdNEtIH8sY0ZgAwJeYeQ-74" value="kompilované jazyky,&lt;br&gt;kompilace,&lt;br&gt;spuštění,&lt;br&gt;přenositelnost" style="rounded=1;whiteSpace=wrap;html=1;rotation=0;direction=east;" parent="DdNEtIH8sY0ZgAwJeYeQ-72" vertex="1">
          <mxGeometry x="115" y="188" width="180" height="92" as="geometry" />
        </mxCell>
        <mxCell id="DdNEtIH8sY0ZgAwJeYeQ-75" value="zpracování knihoven,&lt;br&gt;hlavičkové soubory,&lt;br&gt;co musí být v kódu, aby šel spustit" style="rounded=1;whiteSpace=wrap;html=1;rotation=0;direction=east;" parent="DdNEtIH8sY0ZgAwJeYeQ-72" vertex="1">
          <mxGeometry x="220" y="48.5" width="160" height="111.5" as="geometry" />
        </mxCell>
      </root>
    </mxGraphModel>
  </diagram>
</mxfile>
